<svg width="20" height="20" viewBox="0 0 20 20" fill="none" xmlns="http://www.w3.org/2000/svg">
<circle cx="10" cy="10" r="10" fill="#BADA25"/>
<g clip-path="url(#clip0_1039_8847)">
<path d="M7.9375 11.5C9.28369 11.5 10.375 10.4087 10.375 9.0625C10.375 7.71631 9.28369 6.625 7.9375 6.625C6.59131 6.625 5.5 7.71631 5.5 9.0625C5.5 10.4087 6.59131 11.5 7.9375 11.5Z" stroke="white" stroke-linecap="round" stroke-linejoin="round"/>
<path d="M4.47952 13.375C4.8541 12.7991 5.36658 12.3258 5.97046 11.9982C6.57434 11.6706 7.25047 11.499 7.93749 11.499C8.62451 11.499 9.30065 11.6706 9.90452 11.9982C10.5084 12.3258 11.0209 12.7991 11.3955 13.375" stroke="white" stroke-linecap="round" stroke-linejoin="round"/>
<path d="M12.0625 11.5C12.7495 11.4996 13.4257 11.6709 14.0296 11.9984C14.6335 12.3258 15.146 12.7991 15.5205 13.375" stroke="white" stroke-linecap="round" stroke-linejoin="round"/>
<path d="M11.1573 6.79844C11.4908 6.66545 11.8495 6.60775 12.2078 6.62946C12.5661 6.65117 12.9152 6.75176 13.2301 6.92403C13.5451 7.0963 13.8181 7.33601 14.0296 7.62602C14.2412 7.91603 14.386 8.24919 14.4539 8.60169C14.5218 8.95419 14.5109 9.31732 14.4222 9.66515C14.3334 10.013 14.1689 10.3369 13.9405 10.6138C13.712 10.8907 13.4252 11.1137 13.1006 11.2669C12.7759 11.4201 12.4215 11.4997 12.0625 11.5" stroke="white" stroke-linecap="round" stroke-linejoin="round"/>
</g>
<defs>
<clipPath id="clip0_1039_8847">
<rect width="12" height="12" fill="white" transform="translate(4 4)"/>
</clipPath>
</defs>
</svg>
