<svg width="20" height="20" viewBox="0 0 20 20" fill="none" xmlns="http://www.w3.org/2000/svg">
<path d="M14.4128 13.8086C14.3127 13.9071 14.2675 14.0476 14.2917 14.1848L15.0313 18.5015C15.0523 18.6226 15.0216 18.7341 14.9587 18.8213C14.8941 18.9101 14.7955 18.9731 14.6857 18.9941C14.5985 19.0086 14.5049 18.9973 14.4144 18.9505L10.5386 16.9124C10.5273 16.906 10.5144 16.8995 10.5015 16.8947C10.3981 16.8527 10.2819 16.8527 10.1785 16.8947C10.1656 16.8995 10.1527 16.906 10.1414 16.9124L6.26555 18.9505C6.17511 18.9973 6.08145 19.0086 5.99424 18.9941C5.88443 18.9731 5.78592 18.9101 5.72132 18.8213C5.65834 18.7341 5.62766 18.6226 5.64865 18.5015L6.38828 14.1848C6.41251 14.0476 6.36729 13.9071 6.26716 13.8086L3.12938 10.7515C3.0454 10.6708 3.00503 10.5674 3.00019 10.4657C2.99696 10.3559 3.03571 10.2461 3.11 10.1621C3.17137 10.0926 3.25857 10.041 3.36516 10.0264L7.6996 9.39661C7.83848 9.37562 7.95798 9.29003 8.02097 9.16406L9.95887 5.23659C10.0089 5.13646 10.0881 5.06702 10.1785 5.03149C10.2819 4.9895 10.3981 4.9895 10.5015 5.03149C10.5919 5.06702 10.671 5.13646 10.7211 5.23659L12.659 9.16406C12.722 9.29003 12.8415 9.37562 12.9804 9.39661L17.3148 10.0264C17.4246 10.0426 17.5135 10.0959 17.5748 10.1685C17.6475 10.2541 17.6846 10.3639 17.6782 10.4754C17.6733 10.5739 17.633 10.6724 17.5506 10.7515L14.4128 13.8086Z" fill="#FFDE55"/>
<path d="M10.1996 3.58284C9.83392 3.58284 9.54004 3.28671 9.54004 2.92329V0.942388C9.54004 0.576719 9.83616 0.282837 10.1996 0.282837C10.563 0.282837 10.8591 0.578962 10.8591 0.942388V2.92329C10.8591 3.28895 10.563 3.58284 10.1996 3.58284Z" fill="#FFEB99"/>
<path d="M6.68052 6.66843C6.40641 6.94253 5.96308 6.94253 5.68898 6.66843L4.20167 5.18112C3.92757 4.90702 3.92757 4.46369 4.20167 4.18959C4.47577 3.91548 4.91911 3.91548 5.19321 4.18959L6.68052 5.67689C6.95462 5.951 6.95462 6.39433 6.68052 6.66843Z" fill="#FFEB99"/>
<path d="M14.2013 6.66843C13.9272 6.39433 13.9272 5.951 14.2013 5.67689L15.6886 4.18959C15.9627 3.91548 16.4061 3.91548 16.6802 4.18959C16.9543 4.46369 16.9543 4.90702 16.6802 5.18112L15.1929 6.66843C14.9188 6.94254 14.4754 6.94254 14.2013 6.66843Z" fill="#FFEB99"/>
</svg>
