<svg width="20" height="20" viewBox="0 0 20 20" fill="none" xmlns="http://www.w3.org/2000/svg">
<path d="M14.7722 11.8086C14.6721 11.9071 14.6268 12.0476 14.6511 12.1848L15.3907 16.5015C15.4117 16.6226 15.381 16.7341 15.318 16.8213C15.2534 16.9101 15.1549 16.9731 15.0451 16.9941C14.9579 17.0086 14.8642 16.9973 14.7738 16.9505L10.898 14.9124C10.8867 14.906 10.8738 14.8995 10.8609 14.8947C10.7575 14.8527 10.6412 14.8527 10.5379 14.8947C10.525 14.8995 10.512 14.906 10.5007 14.9124L6.62493 16.9505C6.53449 16.9973 6.44082 17.0086 6.35362 16.9941C6.2438 16.9731 6.14529 16.9101 6.0807 16.8213C6.01772 16.7341 5.98703 16.6226 6.00803 16.5015L6.74766 12.1848C6.77188 12.0476 6.72667 11.9071 6.62654 11.8086L3.48876 8.75153C3.40478 8.67078 3.36441 8.56743 3.35956 8.46569C3.35633 8.35587 3.39509 8.24606 3.46938 8.16208C3.53074 8.09264 3.61795 8.04097 3.72453 8.02643L8.05897 7.39661C8.19786 7.37562 8.31736 7.29003 8.38034 7.16406L10.3182 3.23659C10.3683 3.13646 10.4474 3.06702 10.5379 3.03149C10.6412 2.9895 10.7575 2.9895 10.8609 3.03149C10.9513 3.06702 11.0304 3.13646 11.0805 3.23659L13.0184 7.16406C13.0814 7.29003 13.2009 7.37562 13.3398 7.39661L17.6742 8.02643C17.784 8.04258 17.8728 8.09587 17.9342 8.16854C18.0069 8.25413 18.044 8.36395 18.0375 8.47538C18.0327 8.57389 17.9923 8.6724 17.91 8.75153L14.7722 11.8086Z" fill="#F4CA1A"/>
</svg>
