<svg width="12" height="12" viewBox="0 0 12 12" fill="none" xmlns="http://www.w3.org/2000/svg">
<path d="M8.46419 5.26577L9.62579 4.16496L9.63256 4.15813C9.87176 3.91723 10.0055 3.59118 10.0043 3.2517C10.0031 2.91222 9.86705 2.58712 9.62616 2.34792C9.38526 2.10872 9.0592 1.97501 8.71972 1.97621C8.38024 1.97741 8.05514 2.11342 7.81594 2.35432C7.81595 2.35672 7.81156 2.35874 7.80916 2.36115L6.7166 3.53051L3.39266 2.33439C3.33537 2.31378 3.27339 2.30994 3.214 2.32333C3.15461 2.33672 3.10027 2.36677 3.05736 2.40997L2.10086 3.37327C2.06753 3.40686 2.04206 3.44743 2.0263 3.49205C2.01054 3.53667 2.00487 3.58423 2.0097 3.63131C2.01454 3.67839 2.02975 3.7238 2.05425 3.76429C2.07875 3.80478 2.11193 3.83932 2.15139 3.86544L4.71276 5.55982L4.12212 6.15266L3.2946 6.15559C3.20985 6.15593 3.1287 6.18988 3.06895 6.24998L2.11245 7.21328C2.07515 7.25076 2.04771 7.2969 2.0326 7.34757C2.01749 7.39824 2.01517 7.45187 2.02585 7.50366C2.03654 7.55544 2.05989 7.60378 2.09382 7.64433C2.12775 7.68489 2.1712 7.7164 2.22029 7.73605L3.69503 8.31998L4.28817 9.78775L4.29059 9.79414C4.31111 9.8433 4.34357 9.88657 4.38504 9.92C4.42651 9.95344 4.47567 9.976 4.52806 9.98563C4.58045 9.99525 4.63442 9.99165 4.68507 9.97513C4.73572 9.95862 4.78144 9.92972 4.81809 9.89107L5.76941 8.93258C5.79918 8.90289 5.8228 8.86761 5.83893 8.82878C5.85506 8.78995 5.86337 8.74832 5.8634 8.70627L5.86047 7.87875L6.44872 7.28633L8.16119 9.83564C8.18759 9.87491 8.22237 9.90784 8.26303 9.93206C8.30369 9.95627 8.34922 9.97117 8.39633 9.97567C8.44344 9.98017 8.49096 9.97416 8.53546 9.95808C8.57997 9.94201 8.62036 9.91626 8.65372 9.88269L9.61022 8.91939C9.65311 8.87617 9.68278 8.82162 9.69575 8.76214C9.70871 8.70265 9.70444 8.6407 9.68343 8.58356L8.46419 5.26577ZM8.47516 9.15458L6.76268 6.60567C6.73643 6.5661 6.7017 6.53286 6.661 6.50838C6.6203 6.48389 6.57467 6.46877 6.5274 6.46412C6.51661 6.46416 6.50621 6.46419 6.49581 6.46423C6.45375 6.4644 6.41214 6.47286 6.37335 6.48912C6.33456 6.50539 6.29936 6.52914 6.26976 6.55902L5.31326 7.52232C5.25343 7.58243 5.21991 7.66383 5.22007 7.74863L5.223 8.57615L4.7021 9.10075L4.23808 7.95209C4.22184 7.91221 4.19773 7.87602 4.16717 7.84569C4.13662 7.81535 4.10026 7.79149 4.06027 7.77554L2.90916 7.31965L3.42965 6.79506L4.25677 6.79213C4.2988 6.79201 4.3404 6.78362 4.37918 6.76742C4.41797 6.75123 4.45318 6.72755 4.48281 6.69774L5.43932 5.73444C5.47272 5.70084 5.49825 5.66025 5.51405 5.61558C5.52986 5.57092 5.53555 5.52331 5.53071 5.47618C5.52588 5.42905 5.51064 5.38358 5.48609 5.34306C5.46155 5.30254 5.42831 5.26797 5.38878 5.24186L2.82781 3.54708L3.36584 3.00562L6.69859 4.20412C6.75731 4.22546 6.82099 4.22914 6.88178 4.21471C6.94257 4.20028 6.9978 4.16837 7.04067 4.12291L8.27348 2.80226C8.39369 2.68475 8.5553 2.61925 8.7234 2.61992C8.8915 2.62059 9.05259 2.68738 9.17185 2.80585C9.29111 2.92432 9.35897 3.08496 9.36075 3.25305C9.36254 3.42114 9.29811 3.58319 9.1814 3.70417L7.87111 4.9459C7.82596 4.98908 7.79444 5.04454 7.78044 5.10543C7.76644 5.16632 7.77057 5.22998 7.79233 5.28855L9.01439 8.61272L8.47516 9.15458Z" fill="#1E3A6D"/>
</svg>
