<svg width="12" height="12" viewBox="0 0 12 12" fill="none" xmlns="http://www.w3.org/2000/svg">
<path d="M10.5 2.25H1.5C1.30109 2.25 1.11032 2.32902 0.96967 2.46967C0.829018 2.61032 0.75 2.80109 0.75 3V4.125C0.75 4.32391 0.829018 4.51468 0.96967 4.65533C1.11032 4.79598 1.30109 4.875 1.5 4.875V9C1.5 9.19891 1.57902 9.38968 1.71967 9.53033C1.86032 9.67098 2.05109 9.75 2.25 9.75H9.75C9.94891 9.75 10.1397 9.67098 10.2803 9.53033C10.421 9.38968 10.5 9.19891 10.5 9V4.875C10.6989 4.875 10.8897 4.79598 11.0303 4.65533C11.171 4.51468 11.25 4.32391 11.25 4.125V3C11.25 2.80109 11.171 2.61032 11.0303 2.46967C10.8897 2.32902 10.6989 2.25 10.5 2.25ZM9.75 9H2.25V4.875H9.75V9ZM10.5 4.125H1.5V3H10.5V4.125ZM4.5 6.375C4.5 6.27554 4.53951 6.18016 4.60984 6.10983C4.68016 6.03951 4.77554 6 4.875 6H7.125C7.22446 6 7.31984 6.03951 7.39017 6.10983C7.46049 6.18016 7.5 6.27554 7.5 6.375C7.5 6.47446 7.46049 6.56984 7.39017 6.64017C7.31984 6.71049 7.22446 6.75 7.125 6.75H4.875C4.77554 6.75 4.68016 6.71049 4.60984 6.64017C4.53951 6.56984 4.5 6.47446 4.5 6.375Z" fill="white"/>
</svg>
