<svg width="35" height="35" viewBox="0 0 35 35" fill="none" xmlns="http://www.w3.org/2000/svg">
<circle cx="17.5" cy="17.5" r="17.5" fill="#1E3A6D"/>
<path d="M16.3391 12.7005C16.207 12.5688 16.0438 12.4724 15.8647 12.4203C15.6855 12.3683 15.4961 12.3622 15.3139 12.4026C15.1318 12.443 14.9627 12.5287 14.8224 12.6516C14.6821 12.7746 14.575 12.931 14.511 13.1063L10.8203 23.258C10.7597 23.4254 10.7401 23.6049 10.7632 23.7814C10.7863 23.958 10.8514 24.1264 10.9531 24.2726C11.0548 24.4187 11.19 24.5384 11.3475 24.6214C11.505 24.7045 11.6801 24.7486 11.8581 24.75C11.9892 24.7491 12.1191 24.7253 12.242 24.6797L22.393 20.9883C22.5684 20.9244 22.7248 20.8174 22.8478 20.6771C22.9709 20.5368 23.0566 20.3677 23.0971 20.1856C23.1376 20.0034 23.1316 19.814 23.0796 19.6348C23.0275 19.4555 22.9312 19.2923 22.7994 19.1602L16.3391 12.7005ZM15.7534 22.2075L13.2925 19.7466L14.2178 17.2005L18.2994 21.2822L15.7534 22.2075ZM11.8862 23.6137L12.8706 20.913L14.5898 22.6322L11.8862 23.6137ZM19.4687 20.8575L14.6425 16.0312L15.5566 13.5091L21.9852 19.9378L19.4687 20.8575ZM19.75 14.0625C19.7606 13.6822 19.8526 13.3087 20.02 12.967C20.3926 12.2224 21.0958 11.8125 22 11.8125C22.4711 11.8125 22.7734 11.6515 22.9598 11.3055C23.0579 11.112 23.1142 10.9 23.125 10.6833C23.1255 10.5341 23.1853 10.3912 23.2912 10.2862C23.3971 10.1811 23.5404 10.1223 23.6896 10.1229C23.8388 10.1235 23.9816 10.1832 24.0867 10.2891C24.1918 10.395 24.2505 10.5383 24.25 10.6875C24.25 11.5917 23.6509 12.9375 22 12.9375C21.5289 12.9375 21.2266 13.0985 21.0402 13.4445C20.9421 13.638 20.8858 13.85 20.875 14.0667C20.8747 14.1406 20.8599 14.2137 20.8314 14.2818C20.8028 14.35 20.7612 14.4118 20.7087 14.4638C20.6563 14.5159 20.5942 14.5571 20.5258 14.5851C20.4574 14.6131 20.3842 14.6274 20.3104 14.6271C20.2365 14.6268 20.1634 14.612 20.0953 14.5835C20.0271 14.555 19.9653 14.5133 19.9133 14.4609C19.8612 14.4084 19.82 14.3463 19.792 14.2779C19.764 14.2096 19.7497 14.1364 19.75 14.0625ZM18.0625 11.8125V10.125C18.0625 9.97582 18.1218 9.83274 18.2272 9.72725C18.3327 9.62176 18.4758 9.5625 18.625 9.5625C18.7742 9.5625 18.9172 9.62176 19.0227 9.72725C19.1282 9.83274 19.1875 9.97582 19.1875 10.125V11.8125C19.1875 11.9617 19.1282 12.1048 19.0227 12.2102C18.9172 12.3157 18.7742 12.375 18.625 12.375C18.4758 12.375 18.3327 12.3157 18.2272 12.2102C18.1218 12.1048 18.0625 11.9617 18.0625 11.8125ZM25.2105 17.602C25.2627 17.6543 25.3041 17.7163 25.3323 17.7846C25.3606 17.8529 25.3751 17.926 25.3751 17.9999C25.375 18.0738 25.3604 18.1469 25.3321 18.2152C25.3038 18.2834 25.2624 18.3454 25.2101 18.3976C25.1578 18.4498 25.0958 18.4912 25.0275 18.5195C24.9593 18.5477 24.8861 18.5622 24.8122 18.5622C24.7384 18.5622 24.6652 18.5476 24.597 18.5193C24.5287 18.491 24.4667 18.4495 24.4145 18.3973L23.2895 17.2723C23.184 17.1667 23.1247 17.0236 23.1247 16.8743C23.1247 16.725 23.184 16.5819 23.2895 16.4763C23.3951 16.3708 23.5382 16.3115 23.6875 16.3115C23.8368 16.3115 23.9799 16.3708 24.0855 16.4763L25.2105 17.602ZM25.5529 14.5962L23.8654 15.1587C23.7238 15.2059 23.5694 15.1949 23.4359 15.1282C23.3025 15.0614 23.201 14.9444 23.1538 14.8029C23.1066 14.6614 23.1176 14.5069 23.1843 14.3734C23.2511 14.24 23.3681 14.1385 23.5096 14.0913L25.1971 13.5288C25.3386 13.4816 25.4931 13.4926 25.6266 13.5593C25.76 13.6261 25.8615 13.7431 25.9087 13.8846C25.9558 14.0261 25.9449 14.1806 25.8781 14.3141C25.8114 14.4475 25.6944 14.549 25.5529 14.5962Z" fill="white"/>
</svg>
