<svg width="12" height="12" viewBox="0 0 12 12" fill="none" xmlns="http://www.w3.org/2000/svg">
<path d="M9.31466 1.71538H8.18084V1.35769C8.18084 1.26283 8.14102 1.17185 8.07015 1.10477C7.99927 1.03769 7.90314 1 7.8029 1C7.70267 1 7.60654 1.03769 7.53566 1.10477C7.46478 1.17185 7.42496 1.26283 7.42496 1.35769V1.71538H3.64557V1.35769C3.64557 1.26283 3.60575 1.17185 3.53488 1.10477C3.464 1.03769 3.36787 1 3.26763 1C3.1674 1 3.07127 1.03769 3.00039 1.10477C2.92951 1.17185 2.88969 1.26283 2.88969 1.35769V1.71538H1.75588C1.55541 1.71538 1.36315 1.79076 1.22139 1.92492C1.07964 2.05908 1 2.24104 1 2.43077V9.58462C1 9.77435 1.07964 9.95631 1.22139 10.0905C1.36315 10.2246 1.55541 10.3 1.75588 10.3H9.31466C9.51513 10.3 9.70739 10.2246 9.84914 10.0905C9.9909 9.95631 10.0705 9.77435 10.0705 9.58462C10.0705 9.58462 10.0705 2.6205 10.0705 2.43077C10.0705 2.24104 9.9909 2.05908 9.84914 1.92492C9.70739 1.79076 9.51513 1.71538 9.31466 1.71538ZM2.88969 2.43077V2.78846C2.88969 2.88333 2.92951 2.97431 3.00039 3.04139C3.07127 3.10847 3.1674 3.14615 3.26763 3.14615C3.36787 3.14615 3.464 3.10847 3.53488 3.04139C3.60575 2.97431 3.64557 2.88333 3.64557 2.78846V2.43077H7.42496V2.78846C7.42496 2.88333 7.46478 2.97431 7.53566 3.04139C7.60654 3.10847 7.70267 3.14615 7.8029 3.14615C7.90314 3.14615 7.99927 3.10847 8.07015 3.04139C8.14102 2.97431 8.18084 2.88333 8.18084 2.78846V2.43077H9.31466V3.86154H1.75588V2.43077H2.88969ZM9.31466 9.58462H1.75588V4.57692H9.31466V9.58462ZM6.10218 6.18654C6.10218 6.29266 6.06893 6.39639 6.00664 6.48462C5.94434 6.57286 5.8558 6.64163 5.75221 6.68223C5.64862 6.72284 5.53464 6.73347 5.42467 6.71277C5.3147 6.69207 5.21369 6.64096 5.1344 6.56593C5.05512 6.49089 5.00113 6.39529 4.97925 6.29121C4.95738 6.18713 4.9686 6.07925 5.01151 5.98121C5.05442 5.88317 5.12708 5.79938 5.22031 5.74042C5.31354 5.68147 5.42314 5.65 5.53527 5.65C5.68562 5.65 5.82982 5.70653 5.93613 5.80715C6.04245 5.90777 6.10218 6.04424 6.10218 6.18654ZM8.18084 6.18654C8.18084 6.29266 8.14759 6.39639 8.0853 6.48462C8.02301 6.57286 7.93447 6.64163 7.83088 6.68223C7.72729 6.72284 7.6133 6.73347 7.50333 6.71277C7.39336 6.69207 7.29235 6.64096 7.21307 6.56593C7.13378 6.49089 7.07979 6.39529 7.05792 6.29121C7.03604 6.18713 7.04727 6.07925 7.09018 5.98121C7.13309 5.88317 7.20575 5.79938 7.29898 5.74042C7.3922 5.68147 7.50181 5.65 7.61393 5.65C7.76429 5.65 7.90848 5.70653 8.0148 5.80715C8.12111 5.90777 8.18084 6.04424 8.18084 6.18654ZM4.02351 7.975C4.02351 8.08112 3.99026 8.18485 3.92797 8.27308C3.86568 8.36132 3.77714 8.43009 3.67355 8.4707C3.56996 8.51131 3.45597 8.52193 3.346 8.50123C3.23604 8.48053 3.13502 8.42943 3.05574 8.35439C2.97645 8.27935 2.92246 8.18375 2.90059 8.07967C2.87871 7.97559 2.88994 7.86772 2.93285 7.76968C2.97576 7.67164 3.04842 7.58784 3.14165 7.52889C3.23487 7.46993 3.34448 7.43846 3.4566 7.43846C3.60696 7.43846 3.75115 7.49499 3.85747 7.59561C3.96378 7.69623 4.02351 7.8327 4.02351 7.975ZM6.10218 7.975C6.10218 8.08112 6.06893 8.18485 6.00664 8.27308C5.94434 8.36132 5.8558 8.43009 5.75221 8.4707C5.64862 8.51131 5.53464 8.52193 5.42467 8.50123C5.3147 8.48053 5.21369 8.42943 5.1344 8.35439C5.05512 8.27935 5.00113 8.18375 4.97925 8.07967C4.95738 7.97559 4.9686 7.86772 5.01151 7.76968C5.05442 7.67164 5.12708 7.58784 5.22031 7.52889C5.31354 7.46993 5.42314 7.43846 5.53527 7.43846C5.68562 7.43846 5.82982 7.49499 5.93613 7.59561C6.04245 7.69623 6.10218 7.8327 6.10218 7.975ZM8.18084 7.975C8.18084 8.08112 8.14759 8.18485 8.0853 8.27308C8.02301 8.36132 7.93447 8.43009 7.83088 8.4707C7.72729 8.51131 7.6133 8.52193 7.50333 8.50123C7.39336 8.48053 7.29235 8.42943 7.21307 8.35439C7.13378 8.27935 7.07979 8.18375 7.05792 8.07967C7.03604 7.97559 7.04727 7.86772 7.09018 7.76968C7.13309 7.67164 7.20575 7.58784 7.29898 7.52889C7.3922 7.46993 7.50181 7.43846 7.61393 7.43846C7.76429 7.43846 7.90848 7.49499 8.0148 7.59561C8.12111 7.69623 8.18084 7.8327 8.18084 7.975Z" fill="#1E3A6D"/>
</svg>
