<svg width="15" height="13" viewBox="0 0 15 13" fill="none" xmlns="http://www.w3.org/2000/svg">
<path d="M14.8587 4.43732C14.8587 4.44462 14.8587 4.45126 14.854 4.45857L13.348 11.3562C13.3016 11.5991 13.172 11.8182 12.9814 11.9758C12.7909 12.1333 12.5513 12.2195 12.304 12.2195H2.57088C2.32373 12.2194 2.08434 12.1331 1.89392 11.9755C1.70351 11.818 1.57398 11.599 1.52764 11.3562L0.0215456 4.45857C0.0215456 4.45126 0.0182253 4.44462 0.0168971 4.43732C-0.024323 4.20895 0.0103569 3.97336 0.115638 3.76656C0.220919 3.55975 0.391011 3.3931 0.599925 3.29207C0.808839 3.19104 1.04508 3.16118 1.27256 3.20706C1.50005 3.25294 1.70625 3.37204 1.85967 3.54615L4.09557 5.95603L6.47291 0.624273C6.47302 0.62206 6.47302 0.619844 6.47291 0.617632C6.55792 0.433253 6.69398 0.277091 6.86498 0.167632C7.03598 0.0581726 7.23476 0 7.43779 0C7.64083 0 7.83961 0.0581726 8.01061 0.167632C8.18161 0.277091 8.31767 0.433253 8.40268 0.617632C8.40257 0.619844 8.40257 0.62206 8.40268 0.624273L10.78 5.95603L13.0159 3.54615C13.1697 3.37333 13.3756 3.2554 13.6025 3.21027C13.8293 3.16514 14.0647 3.19527 14.2729 3.29609C14.4811 3.39691 14.6506 3.56291 14.7559 3.76888C14.8611 3.97485 14.8963 4.20955 14.856 4.43732H14.8587Z" fill="#E0B246"/>
</svg>
