<svg width="30" height="30" viewBox="0 0 30 30" fill="none" xmlns="http://www.w3.org/2000/svg">
<circle cx="15" cy="15" r="15" fill="#1E3A6D"/>
<g clip-path="url(#clip0_1039_9045)">
<path d="M20.701 14.8313L13.2635 22.8C13.1846 22.8842 13.0806 22.9404 12.9671 22.9602C12.8535 22.98 12.7366 22.9623 12.634 22.9098C12.5313 22.8573 12.4485 22.7729 12.3981 22.6692C12.3477 22.5656 12.3323 22.4483 12.3544 22.3352L13.3279 17.4656L9.50089 16.0286C9.4187 15.9979 9.3454 15.9472 9.28755 15.8812C9.2297 15.8153 9.1891 15.736 9.16937 15.6505C9.14963 15.565 9.15139 15.4759 9.17448 15.3913C9.19756 15.3066 9.24126 15.229 9.30167 15.1653L16.7392 7.19657C16.818 7.11245 16.922 7.05626 17.0356 7.03646C17.1491 7.01666 17.2661 7.03433 17.3687 7.08681C17.4713 7.13929 17.5541 7.22372 17.6045 7.32738C17.655 7.43103 17.6703 7.54827 17.6483 7.66141L16.6721 12.5363L20.4991 13.9713C20.5807 14.0023 20.6534 14.0529 20.7108 14.1186C20.7682 14.1843 20.8085 14.2631 20.8282 14.3481C20.8479 14.4332 20.8463 14.5217 20.8237 14.606C20.801 14.6902 20.758 14.7676 20.6983 14.8313H20.701Z" fill="white"/>
</g>
<defs>
<clipPath id="clip0_1039_9045">
<rect width="17" height="17" fill="white" transform="translate(6.5 6.5)"/>
</clipPath>
</defs>
</svg>
