<svg width="11" height="16" viewBox="0 0 11 16" fill="none" xmlns="http://www.w3.org/2000/svg">
<path d="M2.86523 7.99292C2.49802 8.14767 2.13353 8.2976 1.87695 8.57788C2.24339 9.67653 2.89857 10.6393 3.76367 11.3503C3.83339 11.4078 3.87768 11.4909 3.88867 11.5808C3.89959 11.671 3.87633 11.7633 3.82324 11.8367C3.77001 11.9102 3.69042 11.96 3.60059 11.9724C3.51056 11.9848 3.42077 11.9579 3.35059 11.9001C2.54182 11.235 1.8987 10.3729 1.46875 9.3894C1.44859 9.49389 1.43789 9.60055 1.4375 9.70776V14.4001H7.36035V11.906C6.37605 11.6651 5.45703 11.1865 4.67578 10.5046C3.89854 9.82619 3.28036 8.966 2.86523 7.99292ZM7.35059 3.76343C6.13535 4.10122 4.85976 4.10127 3.64453 3.76343C3.68278 4.34019 3.90518 5.06324 4.23535 5.65796C4.41323 5.97828 4.61925 6.25609 4.83789 6.45288C5.05733 6.65039 5.28139 6.75854 5.49805 6.75854C5.7146 6.75843 5.93888 6.65028 6.1582 6.45288C6.37667 6.25613 6.58201 5.97804 6.75977 5.65796C7.08994 5.06325 7.31233 4.34019 7.35059 3.76343ZM5.49707 1.60034C5.07784 1.60129 4.67018 1.75293 4.34082 2.03296C4.0341 2.29383 3.81215 2.65195 3.70605 3.05542C4.8791 3.39615 6.115 3.39592 7.28809 3.05542C7.18196 2.65208 6.96094 2.29377 6.6543 2.03296C6.32475 1.75284 5.91652 1.6011 5.49707 1.60034ZM8.0293 14.4001H9.55762V9.70679C9.5585 9.40784 9.48087 9.11459 9.33398 8.86108C9.18715 8.60776 8.97691 8.40465 8.72852 8.27319V8.27222C7.10463 7.41204 5.23994 7.23333 3.5 7.7644C3.86935 8.60748 4.40793 9.35321 5.08008 9.94604C5.74745 10.5346 6.52849 10.9552 7.36523 11.1843C7.37617 11.1125 7.40762 11.0448 7.45801 10.9919C7.51999 10.9271 7.60559 10.8894 7.69531 10.8894C7.78486 10.8895 7.86975 10.9272 7.93164 10.9919C7.9933 11.0566 8.0277 11.1436 8.0293 11.2332V14.4001ZM8.02246 3.79077C7.99176 4.26516 7.85511 4.83762 7.63574 5.3855C7.41256 5.94284 7.09882 6.48329 6.71387 6.8728C7.41287 6.99875 8.24276 7.19751 8.91895 7.58569C9.66344 8.01317 10.2317 8.67373 10.2266 9.70776V14.7498C10.2266 14.7947 10.2183 14.8397 10.2021 14.8816C10.1859 14.9235 10.1614 14.9622 10.1309 14.9949C10.1003 15.0275 10.0633 15.0539 10.0225 15.072C9.98142 15.0901 9.93645 15.1004 9.8916 15.1003H1.10352C1.05869 15.1004 1.01466 15.0901 0.973633 15.072C0.932625 15.0539 0.89596 15.0276 0.865234 14.9949C0.834514 14.9621 0.810247 14.9236 0.793945 14.8816C0.777691 14.8397 0.76952 14.7948 0.769531 14.7498V9.70679C0.773693 8.66337 1.33419 8.00778 2.07422 7.58472C2.74664 7.20036 3.57366 7.00447 4.28125 6.8728C3.89636 6.48329 3.58253 5.94277 3.35938 5.3855C3.10864 4.75925 2.96582 4.10071 2.96582 3.59351V3.5896C3.03493 1.81407 4.26291 0.913459 5.49805 0.913818C6.73322 0.914333 7.96102 1.8159 8.0293 3.5896V3.59351L8.02246 3.79077Z" fill="#bfdbfe" stroke="white" stroke-width="0.2"/>
</svg>
