<svg width="20" height="20" viewBox="0 0 20 20" fill="none" xmlns="http://www.w3.org/2000/svg">
<circle cx="10" cy="10" r="10" fill="#51BA24"/>
<path d="M15.3236 7.45002C15.177 7.37813 15.0107 7.35658 14.8506 7.38869C14.6904 7.4208 14.5453 7.5048 14.4377 7.62767L12.8594 9.32877L11.1813 5.56517C11.1812 5.56361 11.1812 5.56205 11.1813 5.56049C11.1213 5.43034 11.0253 5.32011 10.9045 5.24284C10.7838 5.16557 10.6435 5.12451 10.5002 5.12451C10.3569 5.12451 10.2166 5.16557 10.0959 5.24284C9.97516 5.32011 9.87912 5.43034 9.81911 5.56049C9.81919 5.56205 9.81919 5.56361 9.81911 5.56517L8.14099 9.32877L6.56271 7.62767C6.45441 7.50477 6.30886 7.42071 6.14828 7.38832C5.98771 7.35594 5.82094 7.37701 5.67348 7.44833C5.52601 7.51964 5.40594 7.63728 5.33163 7.78326C5.25731 7.92924 5.23283 8.09553 5.26193 8.25674C5.26193 8.26189 5.26193 8.26658 5.26521 8.27174L6.32833 13.1406C6.36106 13.3121 6.45256 13.4668 6.58707 13.578C6.72157 13.6892 6.89067 13.7501 7.06521 13.75H13.9357C14.1101 13.75 14.2791 13.6891 14.4135 13.5778C14.5479 13.4666 14.6394 13.312 14.6721 13.1406L15.7352 8.27174C15.7352 8.26658 15.7352 8.26189 15.7385 8.25674C15.7681 8.09533 15.7435 7.92866 15.6685 7.78272C15.5934 7.63678 15.4722 7.51979 15.3236 7.45002ZM13.9385 12.985L13.9357 13H7.06474L7.06193 12.985L6.00021 8.12502L6.00677 8.13252L7.97552 10.2531C8.01768 10.2987 8.07048 10.3331 8.1292 10.3532C8.18792 10.3733 8.25071 10.3785 8.31194 10.3684C8.37318 10.3583 8.43094 10.3331 8.48006 10.2952C8.52917 10.2572 8.56809 10.2077 8.59333 10.151L10.5002 5.87502L12.4076 10.1524C12.4328 10.2091 12.4717 10.2586 12.5208 10.2966C12.5699 10.3345 12.6277 10.3597 12.6889 10.3698C12.7502 10.3799 12.813 10.3747 12.8717 10.3546C12.9304 10.3345 12.9832 10.3001 13.0254 10.2545L14.9941 8.13392L15.0002 8.12502L13.9385 12.985Z" fill="white"/>
</svg>
