<svg width="20" height="20" viewBox="0 0 20 20" fill="none" xmlns="http://www.w3.org/2000/svg">
<circle cx="10" cy="10" r="10" fill="#BADA25"/>
<path d="M13.115 6.88933L6.36503 13.6393C6.29467 13.7097 6.19923 13.7492 6.09972 13.7492C6.00021 13.7492 5.90477 13.7097 5.83441 13.6393C5.76404 13.569 5.72451 13.4735 5.72451 13.374C5.72451 13.2745 5.76404 13.1791 5.83441 13.1087L12.5844 6.35871C12.6547 6.28834 12.7501 6.24879 12.8496 6.24874C12.949 6.2487 13.0444 6.28817 13.1148 6.35847C13.1852 6.42878 13.2247 6.52415 13.2248 6.62362C13.2248 6.72309 13.1853 6.8185 13.115 6.88886V6.88933ZM5.84378 8.75496C5.52732 8.43844 5.34957 8.00917 5.34961 7.56159C5.34965 7.11401 5.5275 6.68477 5.84402 6.36832C6.16054 6.05186 6.5898 5.8741 7.03738 5.87415C7.48497 5.87419 7.9142 6.05203 8.23066 6.36855C8.54711 6.68507 8.72487 7.11434 8.72483 7.56192C8.72479 8.0095 8.54694 8.43874 8.23042 8.75519C7.9139 9.07165 7.48464 9.24941 7.03705 9.24937C6.58947 9.24932 6.16024 9.07148 5.84378 8.75496ZM6.09972 7.56246C6.09984 7.71661 6.13797 7.86835 6.21073 8.00424C6.28349 8.14013 6.38864 8.25599 6.51686 8.34155C6.64508 8.42711 6.79243 8.47973 6.94584 8.49476C7.09925 8.50978 7.254 8.48675 7.39639 8.42769C7.53878 8.36863 7.6644 8.27538 7.76215 8.15618C7.85989 8.03699 7.92674 7.89553 7.95676 7.74433C7.98679 7.59314 7.97907 7.43687 7.93429 7.28937C7.88951 7.14187 7.80905 7.00769 7.70003 6.89871C7.56886 6.76758 7.40175 6.67831 7.21983 6.64218C7.03791 6.60605 6.84937 6.6247 6.67805 6.69575C6.50673 6.76681 6.36033 6.88709 6.25739 7.04136C6.15444 7.19564 6.09957 7.37699 6.09972 7.56246ZM13.5997 12.4375C13.5996 12.8279 13.4642 13.2062 13.2164 13.5079C12.9687 13.8096 12.624 14.0161 12.2411 14.0922C11.8582 14.1683 11.4607 14.1093 11.1164 13.9251C10.7722 13.741 10.5024 13.4433 10.353 13.0825C10.2037 12.7218 10.1841 12.3205 10.2975 11.9469C10.4109 11.5733 10.6503 11.2506 10.9749 11.0338C11.2996 10.817 11.6894 10.7194 12.0779 10.7577C12.4664 10.7961 12.8296 10.9679 13.1057 11.244C13.2628 11.4004 13.3874 11.5864 13.4723 11.7912C13.5571 11.9961 13.6004 12.2157 13.5997 12.4375ZM12.8497 12.4375C12.8498 12.2206 12.7746 12.0104 12.637 11.8427C12.4995 11.675 12.308 11.5602 12.0953 11.5178C11.8826 11.4755 11.6617 11.5082 11.4704 11.6104C11.2791 11.7126 11.1292 11.878 11.0461 12.0783C10.9631 12.2787 10.9521 12.5017 11.015 12.7092C11.078 12.9168 11.2109 13.0961 11.3912 13.2167C11.5716 13.3372 11.7881 13.3915 12.004 13.3703C12.2198 13.349 12.4216 13.2536 12.575 13.1003C12.6624 13.0134 12.7316 12.9101 12.7788 12.7964C12.8259 12.6826 12.85 12.5606 12.8497 12.4375Z" fill="white"/>
</svg>
