<svg width="12" height="12" viewBox="0 0 12 12" fill="none" xmlns="http://www.w3.org/2000/svg">
<path d="M10.5 10.875C10.5 10.9745 10.4605 11.0698 10.3902 11.1402C10.3198 11.2105 10.2244 11.25 10.125 11.25H5.24999C5.15053 11.25 5.05515 11.2105 4.98482 11.1402C4.9145 11.0698 4.87499 10.9745 4.87499 10.875C4.87499 10.7756 4.9145 10.6802 4.98482 10.6098C5.05515 10.5395 5.15053 10.5 5.24999 10.5H10.125C10.2244 10.5 10.3198 10.5395 10.3902 10.6098C10.4605 10.6802 10.5 10.7756 10.5 10.875ZM10.5 7.50001V9.00001C10.5 9.19892 10.421 9.38969 10.2803 9.53034C10.1397 9.67099 9.9489 9.75001 9.74999 9.75001H5.34889C5.20943 9.75044 5.07263 9.71181 4.95399 9.63849C4.83536 9.56518 4.73963 9.4601 4.67764 9.33516L1.95374 3.89766C1.90195 3.79336 1.875 3.67849 1.875 3.56204C1.875 3.44559 1.90195 3.33072 1.95374 3.22641L2.99061 1.16391C3.07862 0.98828 3.23203 0.854189 3.41785 0.790464C3.60368 0.726739 3.80709 0.738469 3.98436 0.823132L5.56358 1.48969L5.58561 1.50001C5.7634 1.58901 5.89858 1.74497 5.96143 1.9336C6.02427 2.12223 6.00965 2.32809 5.92077 2.50594C5.91933 2.50952 5.91761 2.51297 5.91561 2.51626L5.24999 3.75001L6.73967 6.75001H9.74999C9.9489 6.75001 10.1397 6.82903 10.2803 6.96968C10.421 7.11033 10.5 7.3011 10.5 7.50001ZM9.74999 7.50001H6.73921C6.5998 7.50046 6.46305 7.46184 6.34449 7.38851C6.22592 7.31519 6.13029 7.21009 6.06842 7.08516L4.57827 4.08516C4.5266 3.98108 4.49972 3.86645 4.49972 3.75024C4.49972 3.63404 4.5266 3.51941 4.57827 3.41532L4.58389 3.40501L5.24999 2.17126L3.68296 1.50985C3.67544 1.50696 3.66809 1.50368 3.66092 1.50001L2.62499 3.56251L5.34842 9.00001H9.74999V7.50001Z" fill="#1E3A6D"/>
</svg>
