<svg xmlns="http://www.w3.org/2000/svg" width="12" height="12" viewBox="0 0 12 12" fill="none">
  <g clip-path="url(#clip0_1039_8786)">
    <path d="M3.95016 8.04985L1.36781 7.09829C1.29661 7.072 1.23517 7.02453 1.19178 6.96225C1.14838 6.89998 1.12512 6.8259 1.12512 6.75C1.12512 6.6741 1.14838 6.60003 1.19178 6.53775C1.23517 6.47548 1.29661 6.42801 1.36781 6.40172L3.95016 5.45016L4.90172 2.86782C4.928 2.79661 4.97548 2.73517 5.03775 2.69178C5.10002 2.64839 5.1741 2.62512 5.25 2.62512C5.3259 2.62512 5.39998 2.64839 5.46225 2.69178C5.52452 2.73517 5.572 2.79661 5.59828 2.86782L6.54984 5.45016L9.13219 6.40172C9.20339 6.42801 9.26483 6.47548 9.30823 6.53775C9.35162 6.60003 9.37488 6.6741 9.37488 6.75C9.37488 6.8259 9.35162 6.89998 9.30823 6.96225C9.26483 7.02453 9.20339 7.072 9.13219 7.09829L6.54984 8.04985L5.59828 10.6322C5.572 10.7034 5.52452 10.7648 5.46225 10.8082C5.39998 10.8516 5.3259 10.8749 5.25 10.8749C5.1741 10.8749 5.10002 10.8516 5.03775 10.8082C4.97548 10.7648 4.928 10.7034 4.90172 10.6322L3.95016 8.04985Z" stroke="white" stroke-linecap="round" stroke-linejoin="round"/>
    <path d="M8.25 0.75V3" stroke="white" stroke-linecap="round" stroke-linejoin="round"/>
    <path d="M10.5 3.375V4.875" stroke="white" stroke-linecap="round" stroke-linejoin="round"/>
    <path d="M7.125 1.875H9.375" stroke="white" stroke-linecap="round" stroke-linejoin="round"/>
    <path d="M9.75 4.125H11.25" stroke="white" stroke-linecap="round" stroke-linejoin="round"/>
  </g>
  <defs>
    <clipPath id="clip0_1039_8786">
      <rect width="12" height="12" fill="white"/>
    </clipPath>
  </defs>
</svg>