<svg width="65" height="65" viewBox="0 0 65 65" fill="none" xmlns="http://www.w3.org/2000/svg">
<circle cx="32.5" cy="32.5" r="32.5" fill="url(#paint0_linear_946_7315)"/>
<path d="M26.314 41.6144C25.5166 40.8169 25.5166 39.5239 26.314 38.7265L41.5773 23.4623C42.3747 22.6648 43.6676 22.6648 44.465 23.4623C45.2624 24.2598 45.2624 25.5527 44.465 26.3502L29.2017 41.6144C28.4043 42.4118 27.1114 42.4118 26.314 41.6144Z" fill="#D9D9D9"/>
<path d="M26.314 41.6144C25.5166 40.8169 25.5166 39.5239 26.314 38.7265L41.5773 23.4623C42.3747 22.6648 43.6676 22.6648 44.465 23.4623C45.2624 24.2598 45.2624 25.5527 44.465 26.3502L29.2017 41.6144C28.4043 42.4118 27.1114 42.4118 26.314 41.6144Z" fill="white"/>
<rect width="11.6306" height="3.88208" rx="1.94104" transform="matrix(0.707086 0.707127 -0.707086 0.707127 22.1729 31.9941)" fill="#D9D9D9"/>
<rect width="11.6306" height="3.88208" rx="1.94104" transform="matrix(0.707086 0.707127 -0.707086 0.707127 22.1729 31.9941)" fill="white"/>
<defs>
<linearGradient id="paint0_linear_946_7315" x1="66.4365" y1="32.5" x2="0" y2="32.5" gradientUnits="userSpaceOnUse">
<stop stop-color="#24B3BA"/>
<stop offset="1" stop-color="#1E3A6D"/>
</linearGradient>
</defs>
</svg>
