<svg width="12" height="12" viewBox="0 0 12 12" fill="none" xmlns="http://www.w3.org/2000/svg">
<path d="M10.8242 9.93752C10.1103 8.7033 9.01013 7.8183 7.72623 7.39877C8.36131 7.02071 8.85472 6.44462 9.1307 5.75899C9.40668 5.07336 9.44997 4.31609 9.25391 3.60347C9.05786 2.89086 8.6333 2.2623 8.04544 1.81433C7.45757 1.36636 6.73891 1.12375 5.99982 1.12375C5.26073 1.12375 4.54207 1.36636 3.95421 1.81433C3.36635 2.2623 2.94179 2.89086 2.74573 3.60347C2.54967 4.31609 2.59296 5.07336 2.86894 5.75899C3.14492 6.44462 3.63834 7.02071 4.27342 7.39877C2.98951 7.81784 1.88935 8.70284 1.17545 9.93752C1.14927 9.98021 1.1319 10.0277 1.12438 10.0772C1.11685 10.1267 1.11932 10.1772 1.13163 10.2258C1.14394 10.2743 1.16585 10.3199 1.19607 10.3598C1.22628 10.3998 1.26419 10.4332 1.30755 10.4583C1.35091 10.4833 1.39886 10.4995 1.44854 10.5057C1.49823 10.5119 1.54866 10.5081 1.59686 10.4945C1.64506 10.4809 1.69005 10.4578 1.72918 10.4266C1.7683 10.3953 1.80077 10.3565 1.82467 10.3125C2.70779 8.78627 4.26873 7.87502 5.99982 7.87502C7.73092 7.87502 9.29185 8.78627 10.175 10.3125C10.1989 10.3565 10.2313 10.3953 10.2705 10.4266C10.3096 10.4578 10.3546 10.4809 10.4028 10.4945C10.451 10.5081 10.5014 10.5119 10.5511 10.5057C10.6008 10.4995 10.6487 10.4833 10.6921 10.4583C10.7355 10.4332 10.7734 10.3998 10.8036 10.3598C10.8338 10.3199 10.8557 10.2743 10.868 10.2258C10.8803 10.1772 10.8828 10.1267 10.8753 10.0772C10.8677 10.0277 10.8504 9.98021 10.8242 9.93752ZM3.37482 4.50002C3.37482 3.98085 3.52878 3.47333 3.81721 3.04165C4.10565 2.60997 4.51562 2.27352 4.99528 2.07484C5.47493 1.87616 6.00273 1.82418 6.51193 1.92546C7.02113 2.02675 7.48886 2.27676 7.85598 2.64387C8.22309 3.01098 8.4731 3.47871 8.57438 3.98791C8.67567 4.49711 8.62369 5.02491 8.42501 5.50457C8.22633 5.98422 7.88987 6.39419 7.45819 6.68263C7.02652 6.97107 6.519 7.12502 5.99982 7.12502C5.30386 7.12428 4.63661 6.84748 4.14449 6.35536C3.65237 5.86324 3.37557 5.19599 3.37482 4.50002Z" fill="#1E3A6D"/>
</svg>
