<svg width="20" height="20" viewBox="0 0 20 20" fill="none" xmlns="http://www.w3.org/2000/svg">
<circle cx="10" cy="10" r="10" fill="#24B3BA"/>
<path d="M13.5996 7H6.09961C6.00015 7 5.90477 6.96049 5.83444 6.89016C5.76412 6.81984 5.72461 6.72446 5.72461 6.625C5.72461 6.52554 5.76412 6.43016 5.83444 6.35984C5.90477 6.28951 6.00015 6.25 6.09961 6.25H12.4746C12.5741 6.25 12.6694 6.21049 12.7398 6.14016C12.8101 6.06984 12.8496 5.97446 12.8496 5.875C12.8496 5.77554 12.8101 5.68016 12.7398 5.60984C12.6694 5.53951 12.5741 5.5 12.4746 5.5H6.09961C5.80124 5.5 5.51509 5.61853 5.30411 5.8295C5.09314 6.04048 4.97461 6.32663 4.97461 6.625V12.625C4.97461 12.9234 5.09314 13.2095 5.30411 13.4205C5.51509 13.6315 5.80124 13.75 6.09961 13.75H13.5996C13.7985 13.75 13.9893 13.671 14.1299 13.5303C14.2706 13.3897 14.3496 13.1989 14.3496 13V7.75C14.3496 7.55109 14.2706 7.36032 14.1299 7.21967C13.9893 7.07902 13.7985 7 13.5996 7ZM13.5996 13H6.09961C6.00015 13 5.90477 12.9605 5.83444 12.8902C5.76412 12.8198 5.72461 12.7245 5.72461 12.625V7.68578C5.84502 7.72846 5.97186 7.75019 6.09961 7.75H13.5996V13ZM11.3496 10.1875C11.3496 10.0762 11.3826 9.96749 11.4444 9.87499C11.5062 9.78249 11.5941 9.71039 11.6969 9.66782C11.7996 9.62524 11.9127 9.6141 12.0218 9.63581C12.131 9.65751 12.2312 9.71109 12.3099 9.78975C12.3885 9.86842 12.4421 9.96865 12.4638 10.0778C12.4855 10.1869 12.4744 10.3 12.4318 10.4028C12.3892 10.5055 12.3171 10.5934 12.2246 10.6552C12.1321 10.717 12.0234 10.75 11.9121 10.75C11.7629 10.75 11.6199 10.6907 11.5144 10.5852C11.4089 10.4798 11.3496 10.3367 11.3496 10.1875Z" fill="white"/>
</svg>
