<svg width="15" height="15" viewBox="0 0 15 15" fill="none" xmlns="http://www.w3.org/2000/svg">
<path d="M7.5 15C11.6421 15 15 11.6421 15 7.5C15 3.35786 11.6421 0 7.5 0C3.35786 0 0 3.35786 0 7.5C0 11.6421 3.35786 15 7.5 15Z" fill="#222222"/>
<path d="M7.5001 14.044C11.1143 14.044 14.0441 11.1141 14.0441 7.49997C14.0441 3.8858 11.1143 0.955933 7.5001 0.955933C3.88592 0.955933 0.956055 3.8858 0.956055 7.49997C0.956055 11.1141 3.88592 14.044 7.5001 14.044Z" fill="url(#paint0_linear_1091_1333)"/>
<path d="M7.49951 13.7886C10.9726 13.7886 13.7881 10.9731 13.7881 7.5C13.7881 4.02692 10.9726 1.21143 7.49951 1.21143C4.02643 1.21143 1.21094 4.02692 1.21094 7.5C1.21094 10.9731 4.02643 13.7886 7.49951 13.7886Z" fill="white"/>
<path d="M7.5 2.60745C7.44561 2.60745 7.39345 2.58584 7.35499 2.54738C7.31653 2.50892 7.29492 2.45676 7.29492 2.40237V1.75081C7.29965 1.69992 7.32321 1.65263 7.36098 1.61821C7.39875 1.58378 7.44801 1.5647 7.49912 1.5647C7.55023 1.5647 7.59949 1.58378 7.63726 1.61821C7.67504 1.65263 7.69859 1.69992 7.70332 1.75081V2.40384C7.70294 2.45767 7.6814 2.50919 7.64336 2.54729C7.60532 2.58538 7.55383 2.60699 7.5 2.60745Z" fill="url(#paint1_linear_1091_1333)"/>
<path d="M7.5 13.4534C7.44561 13.4534 7.39345 13.4318 7.35499 13.3934C7.31653 13.3549 7.29492 13.3027 7.29492 13.2483V12.5977C7.29492 12.5433 7.31653 12.4911 7.35499 12.4526C7.39345 12.4142 7.44561 12.3926 7.5 12.3926C7.55439 12.3926 7.60655 12.4142 7.64501 12.4526C7.68347 12.4911 7.70508 12.5433 7.70508 12.5977V13.2507C7.70446 13.3047 7.68258 13.3562 7.64419 13.3942C7.6058 13.4321 7.55399 13.4534 7.5 13.4534Z" fill="url(#paint2_linear_1091_1333)"/>
<path d="M12.5977 7.70508C12.5433 7.70508 12.4911 7.68347 12.4526 7.64501C12.4142 7.60655 12.3926 7.55439 12.3926 7.5C12.3926 7.44561 12.4142 7.39345 12.4526 7.35499C12.4911 7.31653 12.5433 7.29492 12.5977 7.29492H13.2507C13.3016 7.29965 13.3489 7.32321 13.3833 7.36098C13.4177 7.39875 13.4368 7.44801 13.4368 7.49912C13.4368 7.55023 13.4177 7.59949 13.3833 7.63726C13.3489 7.67504 13.3016 7.69859 13.2507 7.70332L12.5977 7.70508Z" fill="url(#paint3_linear_1091_1333)"/>
<path d="M1.75041 7.70505C1.722 7.70769 1.69336 7.70437 1.6663 7.69531C1.63925 7.68625 1.61439 7.67164 1.5933 7.65242C1.57222 7.63321 1.55537 7.6098 1.54385 7.5837C1.53232 7.5576 1.52637 7.52938 1.52637 7.50085C1.52637 7.47232 1.53232 7.44411 1.54385 7.41801C1.55537 7.39191 1.57222 7.3685 1.5933 7.34929C1.61439 7.33007 1.63925 7.31546 1.6663 7.3064C1.69336 7.29733 1.722 7.29402 1.75041 7.29666H2.40344C2.45433 7.30138 2.50162 7.32494 2.53604 7.36271C2.57047 7.40048 2.58955 7.44975 2.58955 7.50085C2.58955 7.55196 2.57047 7.60123 2.53604 7.639C2.50162 7.67677 2.45433 7.70033 2.40344 7.70505H1.75041Z" fill="url(#paint4_linear_1091_1333)"/>
<path d="M11.1035 4.10159C11.0632 4.10119 11.024 4.08898 10.9907 4.06648C10.9574 4.04397 10.9314 4.01216 10.916 3.97501C10.9006 3.93786 10.8965 3.897 10.9041 3.85751C10.9118 3.81803 10.9309 3.78167 10.959 3.75295L11.4207 3.29123C11.46 3.25839 11.5102 3.24145 11.5614 3.24374C11.6126 3.24602 11.661 3.26738 11.6972 3.3036C11.7335 3.33982 11.7548 3.38828 11.7571 3.43945C11.7594 3.49062 11.7425 3.54079 11.7096 3.5801L11.2479 4.04182C11.229 4.06087 11.2065 4.07597 11.1817 4.08623C11.1569 4.09649 11.1303 4.10171 11.1035 4.10159Z" fill="url(#paint5_linear_1091_1333)"/>
<path d="M3.43439 11.7697C3.40753 11.7698 3.38093 11.7645 3.35613 11.7542C3.33133 11.7439 3.30884 11.7288 3.28996 11.7097C3.25185 11.6713 3.23047 11.6193 3.23047 11.5652C3.23047 11.5111 3.25185 11.4592 3.28996 11.4208L3.75168 10.9591C3.79098 10.9262 3.84116 10.9093 3.89233 10.9116C3.9435 10.9139 3.99196 10.9352 4.02818 10.9714C4.0644 11.0077 4.08576 11.0561 4.08804 11.1073C4.09033 11.1585 4.07339 11.2086 4.04054 11.2479L3.57883 11.7097C3.55992 11.7287 3.53742 11.7439 3.51263 11.7542C3.48783 11.7645 3.46124 11.7698 3.43439 11.7697Z" fill="url(#paint6_linear_1091_1333)"/>
<path d="M11.565 11.7697C11.5381 11.7698 11.5115 11.7645 11.4868 11.7542C11.462 11.7439 11.4395 11.7287 11.4206 11.7097L10.9588 11.2479C10.926 11.2086 10.909 11.1585 10.9113 11.1073C10.9136 11.0561 10.935 11.0077 10.9712 10.9714C11.0074 10.9352 11.0559 10.9139 11.1071 10.9116C11.1582 10.9093 11.2084 10.9262 11.2477 10.9591L11.7094 11.4208C11.7475 11.4592 11.7689 11.5111 11.7689 11.5652C11.7689 11.6193 11.7475 11.6713 11.7094 11.7097C11.6905 11.7288 11.668 11.7439 11.6433 11.7542C11.6185 11.7645 11.5918 11.7698 11.565 11.7697Z" fill="url(#paint7_linear_1091_1333)"/>
<path d="M3.89604 4.10151C3.86929 4.10179 3.84275 4.09675 3.81795 4.0867C3.79316 4.07664 3.77061 4.06176 3.75161 4.04292L3.28989 3.5812C3.25705 3.54189 3.2401 3.49172 3.24239 3.44055C3.24468 3.38938 3.26603 3.34091 3.30225 3.3047C3.33847 3.26848 3.38694 3.24712 3.43811 3.24483C3.48928 3.24255 3.53945 3.25949 3.57876 3.29233L4.04048 3.75405C4.06824 3.78282 4.08699 3.81908 4.09442 3.85837C4.10184 3.89766 4.09762 3.93826 4.08227 3.97518C4.06693 4.0121 4.04112 4.04372 4.00804 4.06617C3.97495 4.08862 3.93602 4.1009 3.89604 4.10151Z" fill="url(#paint8_linear_1091_1333)"/>
<path d="M5.58283 2.99356C5.57103 2.99357 5.55948 2.99011 5.54963 2.98359C5.53978 2.97708 5.53207 2.96781 5.52746 2.95694L5.16359 2.08858C5.16035 2.08135 5.1586 2.07354 5.15846 2.06562C5.15831 2.05769 5.15978 2.04983 5.16276 2.04249C5.16575 2.03515 5.17019 2.02849 5.17582 2.02292C5.18145 2.01734 5.18816 2.01297 5.19553 2.01006C5.20284 2.00694 5.21072 2.00535 5.21867 2.00537C5.23042 2.00528 5.24193 2.00872 5.2517 2.01525C5.26147 2.02178 5.26905 2.0311 5.27346 2.04199L5.63762 2.91065C5.64068 2.91788 5.64226 2.92565 5.64226 2.9335C5.64226 2.94135 5.64068 2.94912 5.63762 2.95635C5.63327 2.96745 5.62564 2.97695 5.61574 2.9836C5.60585 2.99025 5.59417 2.99372 5.58225 2.99356H5.58283Z" fill="url(#paint9_linear_1091_1333)"/>
<path d="M9.78166 13.0078C9.76981 13.0078 9.75824 13.0042 9.74839 12.9977C9.73854 12.9911 9.73085 12.9818 9.72628 12.9708L9.36212 12.1025C9.35902 12.0952 9.35742 12.0874 9.35742 12.0795C9.35742 12.0716 9.35902 12.0638 9.36212 12.0565C9.36504 12.0492 9.36939 12.0425 9.37493 12.037C9.38047 12.0314 9.38707 12.027 9.39435 12.024C9.4017 12.021 9.40955 12.0194 9.4175 12.0193C9.42933 12.0193 9.44088 12.0229 9.45073 12.0294C9.46057 12.036 9.46827 12.0453 9.47287 12.0562L9.83673 12.9246C9.83998 12.9318 9.84173 12.9396 9.84187 12.9475C9.84201 12.9554 9.84055 12.9633 9.83756 12.9706C9.83458 12.978 9.83014 12.9846 9.8245 12.9902C9.81887 12.9958 9.81217 13.0002 9.8048 13.0031C9.79744 13.0061 9.78959 13.0077 9.78166 13.0078Z" fill="url(#paint10_linear_1091_1333)"/>
<path d="M2.91066 5.68883C2.90293 5.68882 2.89527 5.68732 2.8881 5.68443L2.01652 5.3276C2.00921 5.32468 2.00257 5.32033 1.99698 5.31479C1.99139 5.30926 1.98698 5.30265 1.984 5.29537C1.97799 5.28063 1.97799 5.26412 1.984 5.24938C1.98837 5.23823 1.99604 5.22869 2.00599 5.22204C2.01594 5.21539 2.02769 5.21194 2.03966 5.21217C2.04743 5.21214 2.05511 5.21374 2.06222 5.21686L2.9338 5.5734C2.94911 5.57643 2.96259 5.58542 2.97127 5.59838C2.97995 5.61135 2.98312 5.62723 2.98009 5.64254C2.97706 5.65785 2.96808 5.67132 2.95511 5.68C2.94214 5.68868 2.92626 5.69186 2.91095 5.68883H2.91066Z" fill="url(#paint11_linear_1091_1333)"/>
<path d="M12.961 9.80188C12.9532 9.80186 12.9456 9.80037 12.9384 9.79748L12.0668 9.44094C12.0521 9.43492 12.0404 9.42329 12.0342 9.40862C12.0281 9.39395 12.028 9.37744 12.034 9.36272C12.04 9.34799 12.0517 9.33626 12.0663 9.33011C12.081 9.32396 12.0975 9.32388 12.1122 9.3299L12.9838 9.68645C12.9991 9.68948 13.0126 9.69846 13.0213 9.71143C13.03 9.7244 13.0331 9.74028 13.0301 9.75559C13.0271 9.77089 13.0181 9.78437 13.0051 9.79305C12.9921 9.80173 12.9763 9.80491 12.961 9.80188Z" fill="url(#paint12_linear_1091_1333)"/>
<path d="M2.05774 9.8485C2.04243 9.85156 2.02653 9.84843 2.01354 9.83977C2.00055 9.83112 1.99152 9.81766 1.98845 9.80235C1.98538 9.78705 1.98852 9.77115 1.99718 9.75815C2.00583 9.74516 2.01929 9.73613 2.0346 9.73307L2.90296 9.3692C2.91027 9.36608 2.91815 9.36449 2.9261 9.36451C2.93795 9.3643 2.94959 9.36769 2.95947 9.37422C2.96936 9.38076 2.97703 9.39014 2.98147 9.40113C2.98472 9.40836 2.98647 9.41617 2.98661 9.42409C2.98675 9.43201 2.98529 9.43988 2.9823 9.44722C2.97932 9.45456 2.97487 9.46122 2.96924 9.46679C2.96361 9.47237 2.95691 9.47674 2.94954 9.47965L2.07971 9.84381C2.07273 9.84668 2.06529 9.84827 2.05774 9.8485Z" fill="url(#paint13_linear_1091_1333)"/>
<path d="M12.0732 5.64993C12.058 5.653 12.0421 5.64988 12.0291 5.64125C12.0162 5.63263 12.0072 5.6192 12.0041 5.60393C12.001 5.58867 12.0041 5.5728 12.0128 5.55984C12.0214 5.54687 12.0348 5.53786 12.0501 5.53479L12.9196 5.17063C12.9269 5.16752 12.9348 5.16592 12.9428 5.16595C12.958 5.16288 12.9739 5.166 12.9869 5.17463C12.9998 5.18325 13.0088 5.19667 13.0119 5.21194C13.015 5.22721 13.0118 5.24307 13.0032 5.25604C12.9946 5.26901 12.9812 5.27801 12.9659 5.28108L12.0964 5.64524C12.089 5.64836 12.0812 5.64996 12.0732 5.64993Z" fill="url(#paint14_linear_1091_1333)"/>
<path d="M5.26464 13.028C5.25469 13.0284 5.24483 13.0262 5.23597 13.0216C5.22712 13.0171 5.21956 13.0104 5.21402 13.0021C5.20848 12.9938 5.20514 12.9843 5.20431 12.9744C5.20347 12.9645 5.20518 12.9545 5.20927 12.9454L5.5661 12.0741C5.57041 12.063 5.57802 12.0534 5.58791 12.0467C5.59781 12.04 5.60952 12.0365 5.62147 12.0366C5.62934 12.0366 5.63712 12.0382 5.64433 12.0413C5.65167 12.0442 5.65837 12.0485 5.66401 12.054C5.66966 12.0595 5.67413 12.0661 5.67717 12.0734C5.6802 12.0806 5.68174 12.0884 5.68168 12.0963C5.68163 12.1042 5.67998 12.112 5.67685 12.1192L5.3203 12.9908C5.31594 13.002 5.30826 13.0115 5.29831 13.0182C5.28836 13.0248 5.27661 13.0283 5.26464 13.028Z" fill="url(#paint15_linear_1091_1333)"/>
<path d="M9.37864 2.9775C9.3709 2.97754 9.36323 2.97605 9.35608 2.97311C9.34867 2.97028 9.34191 2.96598 9.33621 2.96047C9.33051 2.95495 9.32599 2.94834 9.32292 2.94102C9.31985 2.93371 9.3183 2.92585 9.31836 2.91792C9.31842 2.90999 9.32009 2.90215 9.32327 2.89488L9.67981 2.0233C9.68418 2.01216 9.69185 2.00262 9.7018 1.99596C9.71176 1.98931 9.72351 1.98587 9.73547 1.98609C9.74324 1.98607 9.75092 1.98766 9.75803 1.99078C9.76541 1.99361 9.77213 1.9979 9.77781 2.00339C9.78348 2.00889 9.78799 2.01547 9.79105 2.02275C9.79412 2.03003 9.79568 2.03785 9.79564 2.04575C9.79561 2.05365 9.79397 2.06146 9.79084 2.06871L9.43401 2.94029C9.42966 2.95139 9.42203 2.9609 9.41214 2.96755C9.40224 2.97419 9.39056 2.97767 9.37864 2.9775Z" fill="url(#paint16_linear_1091_1333)"/>
<path d="M7.09277 11.7267L7.51436 12.1729L7.92686 11.7267L7.66904 7.67993H7.36641L7.09277 11.7267Z" fill="url(#paint17_linear_1091_1333)"/>
<path opacity="0.29" d="M7.50005 8.13169C7.84889 8.13169 8.13169 7.84889 8.13169 7.50005C8.13169 7.1512 7.84889 6.86841 7.50005 6.86841C7.1512 6.86841 6.86841 7.1512 6.86841 7.50005C6.86841 7.84889 7.1512 8.13169 7.50005 8.13169Z" fill="#3A3A3A"/>
<path d="M7.49961 8.08943C7.82516 8.08943 8.08906 7.82552 8.08906 7.49998C8.08906 7.17443 7.82516 6.91052 7.49961 6.91052C7.17406 6.91052 6.91016 7.17443 6.91016 7.49998C6.91016 7.82552 7.17406 8.08943 7.49961 8.08943Z" fill="#222222"/>
<defs>
<linearGradient id="paint0_linear_1091_1333" x1="0.956055" y1="7.49997" x2="14.0441" y2="7.49997" gradientUnits="userSpaceOnUse">
<stop stop-color="#3059EF"/>
<stop offset="1" stop-color="#1A88FF"/>
</linearGradient>
<linearGradient id="paint1_linear_1091_1333" x1="7.2958" y1="2.07747" x2="7.7042" y2="2.07747" gradientUnits="userSpaceOnUse">
<stop stop-color="#2437B7"/>
<stop offset="1" stop-color="#1676F0"/>
</linearGradient>
<linearGradient id="paint2_linear_1091_1333" x1="7.2958" y1="12.9229" x2="7.7042" y2="12.9229" gradientUnits="userSpaceOnUse">
<stop stop-color="#2437B7"/>
<stop offset="1" stop-color="#1676F0"/>
</linearGradient>
<linearGradient id="paint3_linear_1091_1333" x1="12.392" y1="7.5" x2="13.4534" y2="7.5" gradientUnits="userSpaceOnUse">
<stop stop-color="#2437B7"/>
<stop offset="1" stop-color="#1676F0"/>
</linearGradient>
<linearGradient id="paint4_linear_1091_1333" x1="1.54621" y1="7.49998" x2="2.60764" y2="7.49998" gradientUnits="userSpaceOnUse">
<stop stop-color="#2437B7"/>
<stop offset="1" stop-color="#1676F0"/>
</linearGradient>
<linearGradient id="paint5_linear_1091_1333" x1="10.8993" y1="3.66565" x2="11.7694" y2="3.66565" gradientUnits="userSpaceOnUse">
<stop stop-color="#2437B7"/>
<stop offset="1" stop-color="#1676F0"/>
</linearGradient>
<linearGradient id="paint6_linear_1091_1333" x1="3.23019" y1="11.3344" x2="4.10031" y2="11.3344" gradientUnits="userSpaceOnUse">
<stop stop-color="#2437B7"/>
<stop offset="1" stop-color="#1676F0"/>
</linearGradient>
<linearGradient id="paint7_linear_1091_1333" x1="10.8991" y1="11.3344" x2="11.7692" y2="11.3344" gradientUnits="userSpaceOnUse">
<stop stop-color="#2437B7"/>
<stop offset="1" stop-color="#1676F0"/>
</linearGradient>
<linearGradient id="paint8_linear_1091_1333" x1="3.23013" y1="3.66558" x2="4.10024" y2="3.66558" gradientUnits="userSpaceOnUse">
<stop stop-color="#2437B7"/>
<stop offset="1" stop-color="#1676F0"/>
</linearGradient>
<linearGradient id="paint9_linear_1091_1333" x1="5.15891" y1="2.49961" x2="5.64289" y2="2.49961" gradientUnits="userSpaceOnUse">
<stop stop-color="#2437B7"/>
<stop offset="1" stop-color="#1676F0"/>
</linearGradient>
<linearGradient id="paint10_linear_1091_1333" x1="9.35744" y1="12.5147" x2="9.84142" y2="12.5147" gradientUnits="userSpaceOnUse">
<stop stop-color="#2437B7"/>
<stop offset="1" stop-color="#1676F0"/>
</linearGradient>
<linearGradient id="paint11_linear_1091_1333" x1="1.97931" y1="5.45065" x2="2.97072" y2="5.45065" gradientUnits="userSpaceOnUse">
<stop stop-color="#2437B7"/>
<stop offset="1" stop-color="#1676F0"/>
</linearGradient>
<linearGradient id="paint12_linear_1091_1333" x1="12.0296" y1="9.56369" x2="13.021" y2="9.56369" gradientUnits="userSpaceOnUse">
<stop stop-color="#2437B7"/>
<stop offset="1" stop-color="#1676F0"/>
</linearGradient>
<linearGradient id="paint13_linear_1091_1333" x1="1.99798" y1="9.6065" x2="2.98616" y2="9.6065" gradientUnits="userSpaceOnUse">
<stop stop-color="#2437B7"/>
<stop offset="1" stop-color="#1676F0"/>
</linearGradient>
<linearGradient id="paint14_linear_1091_1333" x1="12.0132" y1="5.40794" x2="13.0013" y2="5.40794" gradientUnits="userSpaceOnUse">
<stop stop-color="#2437B7"/>
<stop offset="1" stop-color="#1676F0"/>
</linearGradient>
<linearGradient id="paint15_linear_1091_1333" x1="5.20487" y1="12.5323" x2="5.68153" y2="12.5323" gradientUnits="userSpaceOnUse">
<stop stop-color="#2437B7"/>
<stop offset="1" stop-color="#1676F0"/>
</linearGradient>
<linearGradient id="paint16_linear_1091_1333" x1="9.31858" y1="2.4818" x2="9.79524" y2="2.4818" gradientUnits="userSpaceOnUse">
<stop stop-color="#2437B7"/>
<stop offset="1" stop-color="#1676F0"/>
</linearGradient>
<linearGradient id="paint17_linear_1091_1333" x1="7.09277" y1="9.92642" x2="7.92686" y2="9.92642" gradientUnits="userSpaceOnUse">
<stop stop-color="#2437B7"/>
<stop offset="1" stop-color="#1676F0"/>
</linearGradient>
</defs>
</svg>
