<svg width="20" height="20" viewBox="0 0 20 20" fill="none" xmlns="http://www.w3.org/2000/svg">
<circle cx="10" cy="10" r="10" fill="#228085"/>
<path d="M14.8236 7.45002C14.677 7.37813 14.5107 7.35658 14.3506 7.38869C14.1904 7.4208 14.0453 7.5048 13.9377 7.62767L12.3594 9.32877L10.6813 5.56517C10.6812 5.56361 10.6812 5.56205 10.6813 5.56049C10.6213 5.43034 10.5253 5.32011 10.4045 5.24284C10.2838 5.16557 10.1435 5.12451 10.0002 5.12451C9.85689 5.12451 9.71657 5.16557 9.59587 5.24284C9.47516 5.32011 9.37912 5.43034 9.31911 5.56049C9.31919 5.56205 9.31919 5.56361 9.31911 5.56517L7.64099 9.32877L6.06271 7.62767C5.95441 7.50477 5.80886 7.42071 5.64828 7.38832C5.48771 7.35594 5.32094 7.37701 5.17348 7.44833C5.02601 7.51964 4.90594 7.63728 4.83163 7.78326C4.75731 7.92924 4.73283 8.09553 4.76193 8.25674C4.76193 8.26189 4.76193 8.26658 4.76521 8.27174L5.82833 13.1406C5.86106 13.3121 5.95256 13.4668 6.08707 13.578C6.22157 13.6892 6.39067 13.7501 6.56521 13.75H13.4357C13.6101 13.75 13.7791 13.6891 13.9135 13.5778C14.0479 13.4666 14.1394 13.312 14.1721 13.1406L15.2352 8.27174C15.2352 8.26658 15.2352 8.26189 15.2385 8.25674C15.2681 8.09533 15.2435 7.92866 15.1685 7.78272C15.0934 7.63678 14.9722 7.51979 14.8236 7.45002ZM13.4385 12.985L13.4357 13H6.56474L6.56193 12.985L5.50021 8.12502L5.50677 8.13252L7.47552 10.2531C7.51768 10.2987 7.57048 10.3331 7.6292 10.3532C7.68792 10.3733 7.75071 10.3785 7.81194 10.3684C7.87318 10.3583 7.93094 10.3331 7.98006 10.2952C8.02917 10.2572 8.06809 10.2077 8.09333 10.151L10.0002 5.87502L11.9076 10.1524C11.9328 10.2091 11.9717 10.2586 12.0208 10.2966C12.0699 10.3345 12.1277 10.3597 12.1889 10.3698C12.2502 10.3799 12.313 10.3747 12.3717 10.3546C12.4304 10.3345 12.4832 10.3001 12.5254 10.2545L14.4941 8.13392L14.5002 8.12502L13.4385 12.985Z" fill="white"/>
</svg>
